<?xml version="1.0" standalone="no"?>
<!DOCTYPE svg PUBLIC "-//W3C//DTD SVG 20010904//EN"
 "http://www.w3.org/TR/2001/REC-SVG-20010904/DTD/svg10.dtd">
<svg version="1.0" xmlns="http://www.w3.org/2000/svg"
 width="636.000000pt" height="546.000000pt" viewBox="0 0 636.000000 546.000000"
 preserveAspectRatio="xMidYMid meet">
<metadata>
Created by potrace 1.15, written by Peter Selinger 2001-2017
</metadata>
<g transform="translate(0.000000,546.000000) scale(0.100000,-0.100000)"
fill="white" stroke="none">
<path fill="white" d="M5370 5339 c-43 -11 -604 -138 -795 -181 -222 -49 -241 -55 -273 -93
-29 -32 -70 -145 -160 -435 -17 -52 -72 -225 -122 -385 -63 -196 -93 -306 -93
-340 -1 -39 14 -89 65 -224 36 -95 72 -180 80 -187 8 -8 53 -24 101 -35 83
-20 89 -23 184 -106 96 -83 152 -140 153 -156 1 -22 -86 -97 -128 -111 -38
-13 -238 -46 -274 -46 -12 0 -51 -89 -45 -103 3 -7 32 -49 66 -94 68 -92 47
-83 256 -106 l109 -12 78 -179 c43 -99 81 -183 85 -187 5 -5 96 21 203 56 107
36 201 64 208 63 8 -2 64 -157 135 -370 67 -202 119 -364 116 -360 -4 4 -73
129 -154 277 -81 149 -152 275 -158 282 -14 13 -11 14 -265 -78 -90 -32 -167
-59 -171 -59 -4 0 -22 35 -41 78 -77 177 -139 291 -162 297 -32 6 -476 73
-514 77 -25 2 -47 -9 -107 -55 -42 -31 -83 -67 -91 -80 -12 -19 -96 -437 -96
-479 0 -10 60 -42 165 -89 90 -41 164 -78 164 -84 0 -5 -83 -174 -185 -375
-102 -201 -183 -356 -181 -345 3 11 30 108 62 215 77 263 124 425 122 426 -1
0 -77 32 -169 70 -127 52 -168 73 -168 86 0 10 11 82 25 160 14 78 25 148 25
155 0 15 -89 75 -100 68 -4 -2 -31 -47 -61 -100 -30 -53 -67 -109 -84 -125
-24 -24 -386 -197 -542 -259 -17 -7 -39 -21 -49 -32 -9 -10 -77 -178 -149
-371 l-133 -353 -68 -17 c-38 -10 -224 -52 -414 -93 -190 -41 -395 -87 -455
-100 l-111 -26 -102 -147 c-57 -81 -140 -201 -187 -267 -128 -184 -195 -282
-195 -289 0 -3 1104 -6 2453 -6 l2452 0 100 147 c55 81 161 235 235 344 74
109 152 222 172 252 l38 53 1 1914 2 1914 -64 61 c-35 33 -154 134 -263 225
-110 91 -236 196 -280 234 -113 95 -152 109 -246 85z"/>
<path d="M1019 4800 c-51 -9 -119 -59 -143 -105 -15 -28 -21 -59 -21 -103 l0
-62 -66 -35 c-238 -125 -502 -352 -628 -541 -47 -70 -56 -97 -51 -149 1 -11
47 -92 102 -180 200 -317 263 -441 326 -635 57 -178 72 -232 92 -342 28 -146
69 -269 130 -386 56 -108 166 -262 204 -287 30 -20 24 -23 396 185 140 79 289
162 330 185 41 23 116 65 167 93 115 64 280 133 489 205 397 136 610 253 921
504 250 201 483 446 483 506 0 33 -54 121 -102 167 -23 22 -66 49 -95 60 -79
29 -141 25 -258 -16 -463 -163 -529 -177 -815 -177 -278 -1 -482 34 -636 108
-127 61 -225 188 -617 803 -133 209 -138 214 -208 202z"/>
<path d="M3717 3463 c-111 -126 -177 -190 -307 -299 -342 -288 -560 -416 -955
-563 -410 -153 -443 -168 -730 -329 -154 -86 -374 -208 -490 -272 -118 -66
-218 -128 -229 -143 -31 -42 -36 -30 222 -497 86 -156 122 -212 140 -218 9 -3
12 22 13 100 1 57 4 132 8 168 l6 64 70 39 c39 22 111 63 160 92 50 29 160 92
245 140 203 115 256 149 274 178 9 13 25 65 36 115 21 100 39 136 79 157 38
19 211 67 416 115 99 23 197 48 218 56 20 8 39 14 41 14 2 0 20 -28 41 -62
103 -167 127 -201 135 -188 4 7 11 74 15 149 10 221 -3 195 143 299 70 49 177
129 237 177 61 48 120 92 132 97 17 8 56 -2 196 -51 97 -33 178 -61 182 -61
12 0 -30 68 -107 171 -43 59 -78 110 -78 113 0 4 23 32 52 62 39 42 63 58 102
69 52 15 264 45 316 45 48 0 26 26 -54 64 -39 19 -100 42 -136 51 -35 9 -72
21 -82 26 -9 5 -42 48 -73 97 -32 48 -66 97 -78 110 -38 41 -58 30 -160 -85z"/>
</g>
</svg>
