<?xml version="1.0" standalone="no"?>
<!DOCTYPE svg PUBLIC "-//W3C//DTD SVG 20010904//EN"
 "http://www.w3.org/TR/2001/REC-SVG-20010904/DTD/svg10.dtd">
<svg version="1.0" xmlns="http://www.w3.org/2000/svg"
 width="136.000000pt" height="116.000000pt" viewBox="0 0 136.000000 116.000000"
 preserveAspectRatio="xMidYMid meet">
<metadata>
Created by potrace 1.15, written by Peter Selinger 2001-2017
</metadata>
<g transform="translate(0.000000,116.000000) scale(0.100000,-0.100000)"
fill="white" stroke="none">

<path fill="white" d="M881 1031 c-18 -38 -21 -53 -12 -69 8 -15 7 -29 -5 -59 l-16 -38 42
40 c32 31 40 45 35 63 -4 17 2 34 20 57 33 44 32 55 -8 55 -30 0 -36 -5 -56
-49z"/>
<path d="M241 964 c-74 -94 -58 -292 37 -455 31 -53 37 -69 29 -87 -8 -17 -6
-27 8 -42 9 -10 15 -26 12 -34 -4 -10 5 -23 26 -37 18 -12 47 -36 65 -53 28
-26 40 -31 78 -29 30 1 57 -5 79 -19 30 -17 37 -18 55 -5 l20 14 -22 28 -22
28 35 27 34 28 -111 109 c-61 59 -129 131 -152 158 l-41 50 -21 -21 c-20 -20
-21 -23 -7 -51 14 -26 14 -31 -4 -53 l-20 -25 5 30 c4 20 0 38 -13 54 -18 23
-18 25 6 67 l25 44 -30 52 c-37 64 -66 161 -57 188 23 72 163 30 320 -96 38
-30 78 -54 89 -54 19 0 18 3 -9 26 -143 121 -260 184 -341 184 -44 0 -56 -4
-73 -26z"/>
<path d="M1033 947 c-28 -19 -70 -94 -59 -104 4 -4 126 55 126 61 0 12 -23 66
-28 65 -4 0 -21 -10 -39 -22z"/>
<path d="M784 800 c-5 -5 -98 -28 -207 -51 -108 -23 -197 -46 -197 -51 0 -20
34 -16 202 20 152 33 178 36 183 24 3 -9 0 -21 -7 -28 -7 -6 -60 -53 -118
-104 -58 -51 -108 -96 -113 -99 -4 -4 6 -19 21 -34 l29 -28 107 125 c84 97
111 123 127 119 16 -4 18 -12 15 -37 -3 -17 -8 -67 -11 -111 -3 -44 -8 -104
-11 -132 -5 -45 -4 -53 10 -53 9 0 16 1 16 3 0 1 7 76 14 166 8 90 19 168 25
174 20 20 12 55 -20 81 -33 28 -49 32 -65 16z"/>
<path d="M1130 770 c-31 -16 -37 -17 -51 -4 -15 13 -23 11 -75 -21 -62 -37
-62 -40 -2 -26 30 7 40 5 53 -9 15 -17 20 -17 63 -3 57 19 51 13 58 51 7 37 2
38 -46 12z"/>
<path d="M710 715 c12 -15 30 -12 30 6 0 5 -10 9 -21 9 -18 0 -19 -2 -9 -15z"/>
<path d="M777 663 c-3 -5 3 -20 14 -33 l20 -25 -3 29 c-3 29 -21 45 -31 29z"/>
<path d="M951 634 c21 -48 59 -85 107 -104 30 -11 58 -18 63 -14 5 3 9 20 9
39 0 36 9 31 -164 82 -10 3 -17 1 -15 -3z"/>
<path d="M860 565 c0 -10 15 -41 34 -69 19 -29 42 -69 52 -89 20 -41 50 -52
39 -14 -9 29 -91 161 -110 177 -12 10 -15 9 -15 -5z"/>
<path d="M701 368 c11 -29 22 -55 24 -59 3 -3 -13 -14 -35 -24 l-39 -18 15
-30 c13 -24 14 -31 2 -38 -7 -5 -16 -9 -20 -9 -5 0 -8 -4 -8 -9 0 -16 115 -41
186 -41 103 1 173 38 189 102 6 24 2 29 -35 48 -30 15 -52 20 -75 16 -22 -4
-36 -2 -44 8 -6 8 -27 17 -46 20 -25 5 -39 15 -50 35 -11 23 -57 51 -81 51 -2
0 6 -23 17 -52z"/>
<path d="M1026 333 c-27 -4 -26 -6 35 -43 l64 -39 22 27 23 27 -38 17 c-37 17
-54 18 -106 11z"/>
</g>
</svg>
