<?xml version="1.0" standalone="no"?>
<!DOCTYPE svg PUBLIC "-//W3C//DTD SVG 20010904//EN"
 "http://www.w3.org/TR/2001/REC-SVG-20010904/DTD/svg10.dtd">
<svg version="1.0" xmlns="http://www.w3.org/2000/svg"
 width="559.000000pt" height="527.000000pt" viewBox="0 0 559.000000 527.000000"
 preserveAspectRatio="xMidYMid meet">
<metadata>
Created by potrace 1.15, written by Peter Selinger 2001-2017
</metadata>
<g transform="translate(0.000000,527.000000) scale(0.100000,-0.100000)"
fill="white" stroke="none">
<path fill="white" d="M2534 5230 c-502 -53 -969 -251 -1359 -577 -186 -155 -324 -306 -473
-516 -148 -210 -283 -501 -376 -814 -19 -67 -51 -239 -68 -368 -7 -59 -12
-199 -12 -340 1 -253 13 -367 55 -542 l22 -92 65 70 c161 174 436 326 640 354
l52 7 0 600 -1 600 26 14 c23 12 500 291 573 335 15 9 104 60 197 114 153 88
304 176 781 456 l151 89 114 -68 c63 -38 157 -93 209 -124 232 -135 352 -205
450 -263 58 -35 148 -86 200 -115 52 -29 118 -67 145 -85 28 -18 138 -83 245
-145 107 -62 234 -135 283 -163 l87 -51 0 -988 0 -987 -32 -17 c-36 -18 -272
-154 -458 -264 -63 -37 -182 -107 -265 -155 -393 -229 -501 -292 -581 -341
-40 -24 -75 -44 -78 -44 -4 0 -23 -11 -44 -24 -107 -67 -263 -156 -276 -156
-8 0 -106 56 -219 124 l-205 123 -22 -61 c-27 -75 -78 -168 -143 -263 -51 -75
-231 -256 -286 -289 -17 -10 -31 -21 -31 -25 0 -10 264 -96 366 -118 374 -83
839 -72 1198 29 212 60 471 173 661 289 419 256 761 630 975 1066 127 259 195
468 242 741 18 110 22 168 22 399 1 274 -3 315 -45 530 -155 781 -671 1453
-1384 1805 -181 89 -304 136 -470 180 -221 57 -338 72 -605 75 -135 2 -282 0
-326 -5z"/>
<path d="M2735 4052 c-39 -24 -77 -46 -85 -49 -22 -10 -223 -127 -395 -230
-82 -49 -177 -104 -210 -123 -33 -18 -130 -75 -215 -125 -85 -51 -188 -112
-227 -134 l-73 -42 0 -477 0 -477 63 -19 c34 -10 70 -21 80 -23 16 -5 17 21
17 449 l0 455 128 75 c70 41 177 103 237 138 61 35 184 107 275 160 91 54 225
132 298 174 74 42 145 84 158 93 l24 15 0 -1290 0 -1291 -167 101 c-93 56
-188 113 -213 128 l-46 27 19 -91 c11 -50 21 -100 23 -111 3 -14 63 -55 190
-130 103 -60 192 -109 198 -107 6 2 69 38 141 81 228 136 616 365 735 434 63
36 177 104 253 149 l139 83 -1 725 0 725 -43 28 c-73 48 -256 156 -503 297
-60 34 -180 104 -265 155 -85 51 -225 133 -310 181 l-155 89 -70 -43z"/>
<path d="M1053 2356 c-241 -46 -456 -164 -622 -342 -207 -221 -301 -470 -301
-794 0 -120 4 -154 30 -256 132 -531 615 -890 1155 -861 410 23 779 274 955
650 224 478 94 1044 -317 1373 -129 104 -264 171 -431 215 -101 27 -364 35
-469 15z m437 -147 c174 -44 345 -144 472 -277 122 -128 204 -273 250 -442 20
-73 23 -108 23 -255 0 -191 -13 -256 -82 -410 -93 -207 -289 -406 -491 -496
-184 -83 -392 -109 -585 -75 -589 106 -951 718 -765 1291 58 179 163 337 301
453 161 135 316 204 532 236 68 10 262 -4 345 -25z"/>
<path d="M1133 2159 c-215 -28 -414 -132 -560 -294 -118 -130 -206 -318 -234
-495 -16 -101 -6 -275 21 -370 32 -112 111 -268 181 -354 112 -140 296 -259
474 -307 66 -19 108 -22 240 -23 147 0 167 2 250 28 361 111 604 394 661 771
19 120 8 256 -32 391 -126 436 -550 712 -1001 653z m145 -130 c2 -68 -1 -89
-13 -99 -12 -10 -18 -10 -30 0 -11 9 -15 34 -15 95 0 45 3 85 7 89 4 4 16 6
28 4 18 -3 20 -11 23 -89z m-408 -81 c34 -60 39 -91 13 -86 -18 3 -66 75 -78
116 -5 18 -2 22 14 22 14 0 30 -16 51 -52z m826 38 c7 -18 -62 -126 -81 -126
-24 0 -17 27 20 85 35 56 51 66 61 41z m88 -242 c9 -8 16 -21 16 -29 0 -11
-120 -133 -361 -363 -75 -72 -87 -89 -92 -124 -7 -54 -43 -90 -90 -90 -50 0
-76 18 -98 68 -17 38 -40 58 -170 150 -163 116 -182 135 -170 168 17 46 52 33
216 -85 147 -104 160 -111 205 -112 56 0 52 -4 339 271 93 89 174 162 180 162
5 0 17 -7 25 -16z m-1199 -99 c30 -20 55 -40 55 -46 0 -24 -34 -18 -90 16 -59
36 -67 45 -53 58 13 13 33 7 88 -28z m1425 20 c0 -25 -122 -96 -138 -80 -11
11 14 39 59 67 50 30 79 35 79 13z m-1450 -410 c6 -8 10 -22 8 -32 -3 -16 -15
-18 -92 -18 -72 0 -91 3 -99 17 -8 12 -7 21 2 32 18 22 163 23 181 1z m1558 6
c8 -4 12 -19 10 -32 -3 -23 -6 -24 -92 -24 -72 0 -91 3 -99 17 -21 33 8 48 92
48 42 0 82 -4 89 -9z m-1485 -374 c8 -20 -2 -31 -61 -67 -51 -31 -82 -34 -82
-8 0 11 113 86 131 88 4 0 9 -6 12 -13z m1316 -24 c37 -23 61 -45 61 -55 0
-26 -18 -22 -80 15 -36 22 -56 41 -58 55 -5 30 7 28 77 -15z m-1044 -253 c7
-11 -46 -110 -70 -130 -15 -12 -35 -6 -35 12 0 6 16 37 36 69 34 56 55 71 69
49z m760 -50 c35 -58 41 -97 12 -87 -19 6 -80 115 -73 132 10 27 24 16 61 -45z
m-397 -18 c9 -6 12 -33 10 -98 -3 -88 -3 -89 -28 -89 -24 0 -25 2 -28 83 -3
97 10 126 46 104z"/>
</g>
</svg>
