<?xml version="1.0" standalone="no"?>
<!DOCTYPE svg PUBLIC "-//W3C//DTD SVG 20010904//EN"
 "http://www.w3.org/TR/2001/REC-SVG-20010904/DTD/svg10.dtd">
<svg version="1.0" xmlns="http://www.w3.org/2000/svg"
 width="136.000000pt" height="118.000000pt" viewBox="0 0 136.000000 118.000000"
 preserveAspectRatio="xMidYMid meet">
<metadata>
Created by potrace 1.15, written by Peter Selinger 2001-2017
</metadata>
<g transform="translate(0.000000,118.000000) scale(0.100000,-0.100000)"
fill="white" stroke="none">

<path fill="white" d="M586 1168 c4 -7 13 -20 21 -30 8 -9 16 -25 17 -35 6 -38 106 -44 106
-5 0 9 12 31 26 47 22 25 23 31 9 33 -9 2 -22 -1 -28 -7 -8 -6 -18 -6 -27 -1
-22 14 -47 12 -63 -5 -13 -13 -16 -13 -21 0 -3 8 -15 15 -26 15 -14 0 -19 -4
-14 -12z"/>
<path d="M450 995 c-11 -14 -7 -22 25 -56 101 -103 293 -106 401 -7 49 46 52
53 25 68 -16 8 -25 4 -53 -22 -77 -72 -183 -89 -276 -42 -29 14 -60 37 -71 50
-22 28 -34 30 -51 9z"/>
<path d="M319 891 l-24 -19 48 -46 c64 -62 112 -91 194 -117 91 -30 195 -30
286 0 75 24 177 90 215 139 l23 31 -24 15 c-23 16 -26 15 -73 -30 -27 -26 -78
-61 -114 -78 -60 -29 -73 -31 -170 -31 -97 0 -110 2 -172 32 -37 17 -90 52
-116 78 l-49 45 -24 -19z"/>
<path d="M174 785 l-29 -23 66 -63 c187 -180 439 -239 679 -160 98 32 201 99
277 180 l42 44 -26 23 -26 23 -68 -62 c-238 -221 -579 -222 -817 -2 l-68 64
-30 -24z"/>
<path d="M33 679 c-18 -12 -33 -25 -33 -29 0 -16 179 -176 233 -208 251 -151
598 -162 838 -27 24 13 60 33 80 44 38 21 184 153 199 180 6 13 1 22 -25 40
l-33 22 -44 -47 c-87 -94 -194 -162 -338 -215 -59 -21 -81 -24 -230 -24 -149
0 -171 3 -230 24 -143 52 -218 99 -325 202 l-60 58 -32 -20z"/>
<path d="M144 426 c-67 -48 -68 -49 -36 -86 l29 -33 52 41 c28 23 53 43 54 46
1 2 -14 15 -34 29 l-36 24 -29 -21z"/>
<path d="M1152 425 c-19 -13 -33 -26 -33 -29 0 -4 23 -25 51 -47 l51 -40 23
28 c13 15 25 31 27 35 2 3 -16 22 -41 41 l-45 34 -33 -22z"/>
<path d="M340 318 c-19 -12 -56 -37 -82 -56 l-48 -33 22 -30 c12 -16 25 -29
28 -29 4 0 20 11 36 26 16 14 70 45 119 69 50 25 80 45 69 45 -12 0 -38 7 -57
15 -46 19 -45 19 -87 -7z"/>
<path d="M910 320 c-43 -14 -51 -19 -35 -25 59 -20 124 -54 167 -87 26 -21 51
-38 55 -37 4 0 18 13 30 28 l22 28 -47 35 c-41 31 -126 80 -134 77 -2 -1 -28
-9 -58 -19z"/>
<path d="M582 209 c-52 -9 -202 -75 -202 -89 0 -4 9 -15 20 -25 20 -18 22 -18
75 8 29 15 86 35 126 43 93 19 183 6 275 -40 l64 -33 21 23 20 22 -28 19 c-96
68 -234 95 -371 72z"/>
<path d="M613 40 c-23 -5 -54 -16 -70 -24 -26 -14 -16 -15 137 -15 l165 1 -40
18 c-49 22 -136 32 -192 20z"/>
</g>
</svg>
