<?xml version="1.0" standalone="no"?>
<!DOCTYPE svg PUBLIC "-//W3C//DTD SVG 20010904//EN"
 "http://www.w3.org/TR/2001/REC-SVG-20010904/DTD/svg10.dtd">
<svg version="1.0" xmlns="http://www.w3.org/2000/svg"
 width="1200.000000pt" height="892.000000pt" viewBox="0 0 1200.000000 892.000000"
 preserveAspectRatio="xMidYMid meet">
<metadata>
Created by potrace 1.15, written by Peter Selinger 2001-2017
</metadata>
<g transform="translate(0.000000,892.000000) scale(0.100000,-0.100000)"
fill="white" stroke="none">
<path fill="white" d="M6035 8891 c-6 -5 -35 -12 -65 -15 -86 -9 -90 -10 -90 -18 0 -4 -9
-8 -20 -8 -11 0 -20 -3 -20 -8 0 -7 -72 -42 -87 -42 -13 0 -173 -171 -173
-185 0 -7 -3 -15 -7 -17 -14 -5 -52 -87 -59 -123 -3 -19 -10 -38 -15 -41 -5
-3 -9 -39 -9 -80 0 -43 -4 -74 -10 -74 -7 0 -10 -198 -10 -575 l0 -576 -67 3
-68 3 -3 517 -2 516 38 39 c21 21 52 67 70 102 30 60 32 71 32 167 0 58 -4
106 -10 109 -5 3 -10 15 -10 25 0 10 -3 20 -7 22 -5 2 -25 28 -45 60 -35 54
-93 108 -115 108 -6 0 -16 7 -23 15 -7 8 -28 15 -46 15 -19 0 -34 5 -34 10 0
6 -37 10 -90 10 -53 0 -90 -4 -90 -10 0 -5 -16 -10 -35 -10 -19 0 -35 -4 -35
-9 0 -5 -13 -14 -30 -21 -16 -7 -30 -16 -30 -21 0 -5 -6 -9 -14 -9 -8 0 -32
-21 -53 -47 -21 -27 -41 -49 -45 -51 -5 -2 -8 -12 -8 -22 0 -10 -6 -20 -12
-23 -10 -3 -13 -43 -13 -154 l0 -151 49 -70 c27 -39 54 -70 60 -69 8 1 12
-144 14 -525 l2 -528 -532 0 c-459 0 -548 -2 -638 -17 -58 -9 -107 -20 -110
-24 -3 -3 -18 -9 -35 -13 -44 -9 -46 -10 -95 -34 -54 -27 -77 -41 -104 -64
-11 -10 -23 -18 -27 -18 -4 0 -20 -12 -36 -27 -15 -16 -43 -39 -61 -52 -17
-13 -32 -28 -32 -33 0 -5 -17 -27 -37 -49 -21 -23 -41 -49 -45 -60 -4 -10 -12
-19 -18 -19 -5 0 -10 -9 -10 -20 0 -11 -3 -20 -8 -20 -8 0 -42 -73 -42 -90 0
-6 -4 -10 -10 -10 -5 0 -10 -9 -10 -20 0 -11 -4 -20 -10 -20 -5 0 -10 -11 -10
-25 0 -14 -5 -25 -10 -25 -6 0 -8 -10 -4 -24 3 -13 1 -27 -5 -30 -6 -4 -11
-16 -11 -27 0 -19 -13 -19 -619 -19 -625 0 -658 -2 -761 -36 -8 -3 -17 -5 -20
-6 -7 0 -67 -34 -105 -58 -28 -17 -54 -19 -375 -19 -190 -1 -354 -4 -365 -7
-46 -12 -48 -96 -2 -108 12 -3 147 -6 300 -6 229 0 277 -2 277 -14 0 -7 -11
-21 -25 -30 -21 -14 -63 -16 -298 -16 l-274 0 -6 -36 c-12 -75 -17 -74 263
-74 159 0 251 -4 255 -10 4 -6 1 -24 -7 -40 l-13 -30 -235 0 c-129 0 -240 -4
-246 -8 -16 -10 -25 -90 -11 -99 7 -5 118 -10 247 -13 l235 -5 3 -27 3 -28
-238 0 -238 0 -15 -28 c-13 -22 -14 -31 -3 -52 l12 -25 253 -5 c243 -5 253 -6
256 -25 11 -61 70 -155 145 -232 44 -46 86 -83 93 -83 6 0 18 -7 25 -17 13
-15 71 -45 94 -49 36 -5 76 -18 81 -25 3 -5 294 -9 650 -9 l644 0 0 -589 0
-589 -22 -6 c-30 -7 -962 -8 -1009 0 -27 5 -40 14 -53 39 -10 18 -28 38 -39
44 -47 25 -68 38 -86 55 -11 10 -25 15 -31 11 -6 -4 -17 -1 -25 5 -20 17 -257
9 -263 -8 -2 -7 -12 -12 -23 -12 -10 0 -19 -4 -19 -10 0 -5 -6 -10 -13 -10
-20 0 -120 -109 -138 -148 -7 -17 -17 -32 -21 -32 -5 0 -8 -20 -8 -45 l0 -45
-184 0 c-197 0 -201 -1 -204 -53 -3 -53 10 -57 195 -57 178 0 193 -4 193 -46
0 -13 4 -25 9 -29 5 -3 12 -18 16 -33 3 -16 18 -42 34 -59 15 -17 31 -38 34
-47 4 -9 11 -16 17 -16 6 0 21 -10 33 -22 29 -30 62 -48 86 -48 11 0 22 -4 25
-9 9 -14 137 -22 199 -12 35 6 75 22 103 41 25 16 48 30 51 30 3 0 25 20 50
45 l44 45 525 0 524 -1 0 -65 0 -64 -513 0 c-500 0 -514 -1 -557 -21 -47 -23
-73 -46 -113 -101 -24 -33 -27 -46 -27 -117 0 -62 5 -90 21 -120 25 -48 74
-101 94 -101 8 0 15 -4 15 -10 0 -5 13 -10 29 -10 17 0 33 -4 36 -10 4 -6 185
-10 511 -10 l504 0 0 -60 0 -60 -1110 0 c-978 0 -1111 2 -1116 15 -4 8 -11 15
-18 15 -6 0 -17 9 -23 19 -7 11 -28 25 -48 32 -19 7 -35 17 -35 21 0 4 -11 8
-24 8 -14 0 -28 5 -31 10 -8 14 -182 13 -190 -1 -4 -6 -13 -8 -21 -5 -7 3 -16
1 -19 -4 -4 -6 -15 -10 -26 -10 -10 0 -19 -4 -19 -9 0 -5 -8 -11 -17 -15 -38
-12 -98 -63 -120 -100 -61 -109 -66 -125 -66 -227 -1 -64 3 -103 11 -111 7 -7
12 -21 12 -32 0 -10 11 -34 25 -52 14 -18 25 -37 25 -41 0 -13 54 -63 68 -63
6 0 15 -6 19 -13 20 -31 102 -60 193 -66 50 -4 97 -3 103 1 7 4 24 8 40 8 15
0 27 5 27 10 0 6 9 10 20 10 11 0 20 5 20 10 0 6 6 10 13 10 6 0 30 18 52 40
l40 39 1108 1 1107 0 0 -34 c0 -19 5 -38 10 -41 6 -3 10 -32 10 -64 0 -32 3
-61 8 -65 4 -4 7 -11 8 -14 3 -41 20 -104 35 -132 11 -19 19 -39 19 -44 0 -10
64 -118 94 -159 29 -39 143 -157 152 -157 5 0 20 -12 35 -26 l27 -25 6 353 c4
194 8 622 9 950 2 471 5 598 15 598 9 0 12 -30 12 -114 0 -63 4 -117 9 -120 5
-3 12 -332 16 -731 4 -399 11 -728 16 -731 5 -3 9 -17 9 -32 0 -20 3 -23 12
-14 32 32 38 14 38 -108 0 -106 2 -120 19 -129 10 -6 21 -7 25 -4 3 3 6 1 6
-5 0 -7 7 -12 15 -12 17 0 21 35 5 45 -6 4 -10 103 -10 265 l0 259 -30 16
c-16 8 -38 15 -50 15 -20 0 -20 5 -20 240 0 132 3 240 8 240 4 0 8 55 10 123
2 67 8 226 14 352 5 127 12 310 14 408 3 97 9 177 13 177 5 0 12 147 16 326 4
179 11 340 16 358 5 17 9 106 9 198 0 100 4 169 10 173 6 3 10 49 10 101 0 61
4 93 10 89 6 -4 10 -220 10 -615 0 -395 4 -611 10 -615 6 -4 10 -137 10 -366
0 -303 2 -359 14 -359 8 0 16 4 18 9 2 5 15 12 29 16 24 6 25 4 21 -24 -2 -19
0 -31 7 -31 8 0 11 -97 11 -340 0 -220 4 -340 10 -340 6 0 10 -131 10 -372 0
-205 4 -378 8 -385 5 -8 41 -13 97 -15 l90 -3 3 -472 c1 -293 6 -473 12 -473
5 0 7 -7 4 -15 -4 -8 -2 -21 4 -28 5 -6 13 -27 17 -45 3 -17 11 -32 16 -32 5
0 9 -5 9 -11 0 -35 156 -204 217 -235 21 -10 49 -26 63 -35 14 -9 32 -16 40
-17 8 0 25 -4 38 -7 l22 -7 0 164 c0 114 -4 168 -12 176 -8 8 -45 12 -101 12
l-88 0 5 97 c9 166 17 243 26 243 4 0 11 59 15 130 4 72 11 133 16 136 5 3 9
32 9 65 0 32 4 67 9 77 19 33 27 272 16 432 -6 85 -14 162 -18 170 -3 8 -8 49
-11 90 -15 228 -29 377 -37 392 -5 10 -9 51 -9 92 0 41 -4 77 -8 80 -5 3 -12
63 -16 133 -10 160 -11 171 -19 179 -4 4 -7 44 -7 89 0 44 -5 86 -11 92 -13
13 -8 122 6 126 9 2 26 -117 41 -288 3 -38 10 -74 14 -80 4 -5 11 -58 15 -118
4 -59 11 -110 16 -113 5 -3 9 -33 9 -68 0 -34 4 -66 9 -72 5 -5 11 -34 14 -64
10 -117 30 -266 37 -285 5 -11 11 -63 15 -115 3 -52 8 -96 11 -99 10 -10 14
11 20 117 4 62 10 112 14 112 4 0 11 59 15 130 4 72 11 133 16 136 5 3 9 34 9
70 0 36 4 64 10 64 6 0 10 30 10 70 0 39 4 70 9 70 4 0 11 59 15 132 4 73 12
140 17 149 5 10 9 39 9 66 0 26 7 89 15 138 8 50 15 109 15 132 0 23 5 45 10
48 6 3 10 17 10 30 0 13 5 27 10 30 11 7 13 -3 10 -51 -1 -18 3 -35 9 -39 12
-7 15 -78 3 -89 -4 -4 -8 -74 -9 -154 -1 -81 -5 -448 -9 -815 -4 -367 -11
-670 -16 -673 -13 -8 -10 -102 5 -127 6 -12 12 -23 12 -24 0 -2 89 23 108 31
10 5 23 4 30 -3 11 -9 15 107 21 667 9 741 8 725 22 732 5 3 12 -154 16 -400
4 -223 11 -589 16 -815 5 -225 10 -447 11 -492 l1 -83 28 6 27 6 -3 -113 c-2
-70 1 -116 7 -122 7 -7 11 -100 11 -268 0 -164 4 -260 10 -264 6 -4 8 -11 5
-16 -23 -35 78 37 137 99 68 72 133 177 141 231 2 11 6 24 10 27 4 4 7 27 7
50 0 24 5 46 10 49 6 4 10 160 10 436 l0 429 60 0 60 0 0 626 c0 414 3 623 10
619 6 -4 10 -113 10 -295 0 -182 4 -291 10 -295 6 -4 10 -125 10 -331 l0 -324
45 0 45 0 0 40 c0 22 5 40 10 40 6 0 10 36 10 88 0 49 3 92 8 96 4 4 13 94 20
199 7 106 17 233 22 282 5 50 15 176 22 282 7 105 16 195 21 199 4 4 7 46 7
94 0 48 3 90 8 94 4 4 7 24 7 43 0 20 6 38 13 40 9 4 12 -150 12 -746 l0 -751
64 0 64 0 6 897 c8 1067 7 1045 23 1050 10 4 13 -75 17 -344 7 -577 26 -1547
32 -1562 3 -11 7 -12 16 -3 19 19 28 14 28 -13 0 -16 6 -25 15 -25 13 0 15 42
15 320 0 176 3 320 8 320 4 0 6 116 4 257 -4 322 7 803 19 803 5 0 9 -151 9
-344 0 -190 4 -347 9 -350 4 -3 11 -216 15 -473 3 -257 9 -483 12 -501 l6 -32
103 0 102 0 6 452 c4 248 7 617 7 819 0 236 4 370 10 374 6 3 12 0 14 -7 3 -7
10 -328 16 -713 5 -385 13 -751 16 -812 l5 -113 65 0 64 0 0 214 c0 133 4 217
10 221 7 4 10 -70 10 -214 l0 -221 40 0 40 0 0 445 c0 290 3 445 10 445 10 0
17 -422 11 -617 -2 -64 0 -93 8 -93 6 0 11 19 11 45 0 25 4 45 9 45 13 0 21
-64 21 -172 l0 -97 68 -3 67 -3 3 -442 2 -443 25 -16 c16 -10 34 -14 54 -9 24
5 30 12 36 43 3 20 7 224 8 452 l2 415 28 3 c26 3 27 5 26 63 -1 33 -6 62 -10
65 -5 3 -9 43 -9 89 0 46 -4 86 -8 89 -5 3 -12 61 -17 128 -11 177 -11 177
-18 185 -4 3 -7 44 -7 90 0 49 -4 83 -10 83 -6 0 -10 33 -10 79 0 44 -4 82 -9
85 -4 3 -11 74 -15 158 -4 84 -12 157 -17 163 -5 5 -9 44 -9 86 0 43 -4 80 -8
83 -5 3 -12 69 -16 146 -4 78 -11 152 -16 166 -6 14 -10 58 -10 99 0 41 -4 77
-10 80 -5 3 -10 31 -10 61 l0 54 -670 0 -670 0 0 25 0 25 -153 0 c-152 0 -207
10 -207 37 0 6 -4 13 -8 15 -8 3 -72 95 -72 104 0 3 -10 15 -22 28 -13 13 -53
68 -90 123 -37 54 -76 108 -88 120 -11 12 -20 25 -20 28 0 7 -50 76 -61 85 -3
3 -14 20 -23 38 -9 17 -22 32 -28 32 -6 0 -8 3 -5 6 4 4 -6 21 -21 39 -15 17
-34 42 -42 55 -8 12 -24 35 -35 49 -11 14 -34 46 -50 71 -17 25 -35 50 -40 56
-6 6 -28 39 -50 73 -21 33 -43 61 -47 61 -4 0 -8 5 -8 11 0 6 -17 32 -37 58
-21 25 -42 53 -48 62 -50 78 -99 145 -111 152 -8 4 -14 13 -15 20 0 7 -15 32
-33 57 -32 44 -34 45 -94 48 l-62 3 0 735 0 734 735 -2 736 -3 2 -236 c2 -189
5 -240 17 -254 17 -20 35 -51 49 -82 6 -13 14 -23 19 -23 4 0 16 -15 26 -32
17 -28 73 -105 106 -145 5 -7 10 -17 10 -23 0 -5 8 -18 18 -28 19 -20 71 -88
87 -113 29 -48 85 -127 104 -146 11 -12 21 -27 21 -32 0 -5 8 -16 18 -23 9 -7
18 -20 20 -28 2 -8 7 -17 10 -20 14 -11 72 -89 72 -98 0 -5 11 -19 25 -32 14
-13 25 -30 25 -37 0 -8 7 -16 15 -19 8 -4 15 -11 15 -18 0 -6 16 -28 35 -48
l35 -38 370 0 370 0 0 -735 0 -735 -51 0 -51 0 6 -67 c8 -107 31 -297 38 -313
4 -8 9 -42 13 -75 3 -33 13 -112 21 -175 9 -63 18 -142 21 -175 3 -33 8 -64
13 -70 4 -5 11 -59 15 -120 4 -60 11 -114 15 -120 4 -5 10 -37 14 -70 19 -181
33 -292 38 -305 4 -8 9 -37 11 -65 3 -27 8 -61 11 -75 3 -14 8 -46 11 -72 4
-32 11 -48 21 -48 8 0 14 5 14 10 0 6 5 10 10 10 6 0 10 -18 10 -39 0 -22 5
-43 10 -46 6 -3 10 -30 10 -60 0 -30 5 -57 10 -60 6 -3 10 -29 10 -56 0 -35 4
-51 15 -55 11 -5 15 -23 15 -78 0 -40 4 -76 9 -82 5 -5 12 -49 14 -99 5 -113
27 -294 38 -320 4 -11 10 -42 13 -70 22 -209 31 -266 44 -254 9 10 12 115 12
457 l0 443 28 -3 27 -3 0 -443 c0 -243 3 -442 6 -442 4 0 12 48 18 108 17 163
22 196 31 207 4 6 11 56 15 113 4 56 11 105 16 108 5 3 9 29 9 59 0 30 4 56 8
59 5 3 12 56 15 118 3 65 10 114 16 116 6 2 11 21 11 43 0 21 4 39 9 39 5 0
12 47 16 105 4 58 11 108 16 111 5 3 9 27 9 55 0 27 4 49 9 49 4 0 11 43 15
96 4 53 11 105 16 115 6 10 10 38 10 63 0 25 5 46 10 46 6 0 10 24 10 53 0 28
7 83 15 122 8 38 15 89 15 112 0 23 4 44 9 47 4 3 11 34 14 68 10 108 29 232
38 250 5 10 9 38 9 63 0 28 4 44 10 40 6 -4 10 30 10 94 0 61 4 101 10 101 6
0 10 10 11 23 l0 22 12 -23 c8 -18 8 -32 -1 -55 -8 -21 -8 -34 -1 -43 7 -8 6
-13 -3 -16 -10 -4 -11 -10 -1 -29 12 -24 23 -106 26 -186 1 -23 5 -45 10 -49
4 -4 7 -27 7 -51 0 -24 4 -51 9 -61 9 -17 29 -160 38 -277 3 -33 9 -64 14 -69
5 -6 9 -34 9 -62 0 -29 5 -56 10 -59 6 -3 10 -25 10 -48 0 -72 11 -115 30
-120 13 -3 18 -20 23 -73 4 -38 7 -86 7 -106 0 -21 5 -38 10 -38 6 0 10 -24
10 -54 0 -30 4 -57 9 -60 5 -3 12 -49 16 -103 4 -53 12 -105 18 -115 14 -21
55 -24 81 -5 17 12 17 25 11 155 -4 78 -12 145 -16 148 -5 3 -9 41 -9 84 0 43
-4 81 -9 84 -4 3 -12 74 -16 158 -10 183 -8 165 -17 174 -5 4 -8 40 -8 80 0
40 -4 75 -9 78 -4 3 -12 67 -16 143 -11 182 -10 182 -18 190 -4 3 -7 37 -7 74
0 37 -4 71 -10 74 -5 3 -10 44 -10 90 0 46 -3 86 -8 89 -4 2 -9 30 -10 63 -4
74 -19 242 -33 358 -6 50 -12 110 -13 135 -4 66 -17 152 -26 170 -8 13 -13 27
-27 65 -2 6 -6 25 -9 43 -4 17 -10 32 -15 32 -5 0 -9 8 -9 19 0 10 -7 32 -15
47 -8 16 -15 37 -15 46 0 9 -4 20 -10 23 -5 3 -10 17 -10 31 0 13 -4 24 -10
24 -5 0 -10 10 -10 23 0 12 -7 35 -15 51 -8 15 -15 37 -15 47 0 11 -4 19 -10
19 -5 0 -10 9 -10 19 0 11 -5 23 -11 26 -6 4 -8 12 -6 19 3 7 -4 29 -14 50
-10 21 -21 54 -25 73 -3 18 -10 36 -15 39 -5 3 -9 16 -9 30 0 13 -4 24 -10 24
-5 0 -10 8 -10 19 0 10 -7 32 -15 47 -8 16 -15 37 -15 46 0 9 -4 20 -10 23 -5
3 -10 17 -10 31 0 13 -4 24 -9 24 -5 0 -12 16 -16 36 -3 20 -11 45 -16 55 -5
11 -13 28 -19 39 -5 10 -13 37 -16 60 -4 22 -10 40 -15 40 -5 0 -9 9 -9 20 0
11 -4 20 -10 20 -5 0 -10 11 -10 25 0 14 -5 25 -11 25 -5 0 -9 8 -8 18 2 16
-2 31 -21 77 -5 11 -16 43 -25 70 -10 28 -21 59 -25 70 -19 47 -24 61 -25 70
-3 14 -15 47 -26 67 -5 10 -9 25 -9 33 0 8 -4 15 -9 15 -5 0 -11 18 -15 40 -3
22 -14 54 -25 72 -10 18 -21 50 -25 72 -4 21 -11 46 -16 55 -4 9 -12 27 -18
41 -5 14 -17 41 -26 62 -9 20 -16 45 -16 57 0 12 -4 21 -9 21 -5 0 -11 18 -15
39 -3 21 -15 56 -25 77 -21 42 -33 73 -36 89 -4 27 -20 73 -36 102 -10 17 -21
48 -25 67 -3 20 -10 39 -15 42 -5 3 -9 15 -9 28 0 12 -3 26 -7 30 -4 3 -8 13
-9 21 -1 8 -9 29 -18 46 -9 18 -16 40 -16 51 0 10 -5 18 -11 18 -6 0 -9 7 -6
15 4 8 2 17 -3 20 -6 4 -10 15 -10 25 0 11 -8 34 -19 53 -25 45 -38 121 -20
115 16 -5 128 -224 129 -250 0 -10 5 -18 10 -18 6 0 10 -7 10 -15 0 -8 7 -31
16 -52 9 -21 23 -51 30 -68 7 -16 24 -55 38 -86 14 -31 26 -61 26 -66 0 -6 16
-42 35 -79 19 -38 35 -75 35 -82 0 -7 11 -30 25 -52 14 -22 25 -44 25 -49 0
-5 6 -22 14 -38 27 -52 66 -143 66 -153 0 -6 5 -10 10 -10 6 0 10 -8 10 -18 0
-10 11 -41 25 -68 14 -27 25 -54 25 -60 0 -15 24 -64 32 -64 3 0 9 -14 13 -31
4 -17 13 -42 21 -57 8 -15 14 -32 14 -38 0 -6 7 -17 15 -24 8 -7 12 -16 10
-21 -5 -7 11 -45 25 -59 3 -3 14 -31 24 -62 11 -32 23 -58 28 -58 4 0 8 -9 8
-20 0 -11 4 -20 9 -20 5 0 12 -18 16 -40 4 -22 11 -40 15 -40 5 0 11 -13 15
-30 4 -16 11 -30 16 -30 5 0 9 -9 9 -20 0 -11 5 -20 10 -20 6 0 10 -9 10 -20
0 -11 5 -20 10 -20 6 0 10 -6 8 -12 -2 -11 42 -115 73 -170 5 -10 9 -25 9 -33
0 -8 4 -15 9 -15 5 0 11 -10 14 -22 7 -30 31 -92 38 -98 5 -4 17 -30 24 -50 3
-9 17 -44 29 -72 6 -16 14 -28 18 -28 5 0 8 -7 8 -16 0 -16 10 -41 55 -139 22
-48 37 -84 39 -95 1 -3 13 -30 27 -60 15 -30 35 -75 45 -100 10 -25 21 -47 24
-50 4 -3 10 -13 13 -23 4 -10 13 -17 20 -15 12 5 18 99 28 430 3 102 7 138 17
138 9 0 12 -58 12 -257 l0 -256 23 21 c21 20 25 20 44 7 12 -9 41 -55 65 -103
23 -48 46 -89 50 -90 4 -2 8 -13 8 -23 0 -11 10 -39 23 -62 13 -23 32 -66 42
-94 11 -29 23 -53 27 -53 4 0 8 -7 8 -15 0 -8 11 -36 24 -63 14 -26 33 -65 42
-87 9 -22 35 -78 58 -125 22 -47 41 -87 41 -90 0 -3 20 -44 43 -93 23 -48 42
-91 42 -95 0 -15 25 -62 33 -62 4 0 7 -6 7 -13 0 -7 9 -29 20 -50 11 -20 20
-46 20 -57 0 -11 3 -20 8 -20 8 0 42 -73 42 -90 0 -6 3 -10 8 -10 4 0 7 271 7
602 l0 603 400 5 c376 5 402 6 437 25 21 11 45 35 53 53 9 17 20 32 25 32 6 0
10 9 10 20 0 11 5 20 10 20 6 0 10 37 10 90 0 53 -4 90 -10 90 -5 0 -10 9 -10
20 0 11 -3 20 -7 20 -5 0 -16 14 -25 30 -9 17 -30 36 -45 42 -15 7 -31 17 -35
23 -5 6 -153 12 -410 15 l-403 5 -3 43 -3 42 1095 0 c719 0 1097 3 1101 10 3
6 27 10 53 11 51 0 120 24 153 52 11 10 24 15 28 13 5 -3 21 8 37 24 16 16 35
30 42 30 7 0 15 7 18 15 5 13 57 15 384 15 352 0 378 1 393 18 20 22 22 63 5
80 -9 9 -99 12 -345 12 -187 0 -333 4 -333 9 0 5 6 22 13 39 l12 30 313 -1
c288 0 313 1 332 18 24 22 26 52 4 83 -15 22 -16 22 -320 22 l-304 0 0 90 0
90 300 0 c269 0 302 2 320 17 25 22 26 65 2 86 -17 15 -56 17 -351 17 l-331 0
-10 23 c-25 58 -114 151 -170 180 -19 10 -50 27 -69 38 -19 11 -43 18 -53 16
-10 -3 -18 -1 -18 4 0 5 -22 9 -48 9 -26 0 -52 4 -58 10 -6 6 -393 11 -1099
12 l-1090 3 0 40 0 40 385 2 385 3 54 27 c29 16 56 35 59 43 3 8 14 24 24 34
10 11 18 26 18 33 0 7 5 13 10 13 6 0 10 37 10 90 0 53 -4 90 -10 90 -5 0 -10
9 -10 20 0 11 -4 20 -10 20 -5 0 -10 6 -10 13 0 35 -98 97 -154 97 -19 0 -38
5 -41 10 -4 6 -135 10 -359 10 l-353 0 -5 167 c-4 112 -9 168 -17 171 -6 2
-11 13 -11 25 0 24 -27 106 -39 122 -5 5 -11 23 -15 40 -4 16 -23 51 -42 77
-19 27 -34 53 -34 58 0 21 -210 220 -255 241 -25 12 -45 25 -45 30 0 5 -9 9
-20 9 -11 0 -20 4 -20 10 0 5 -16 12 -35 16 -19 3 -38 10 -41 15 -3 5 -16 9
-30 9 -13 0 -24 5 -24 10 0 6 -11 10 -24 10 -14 0 -28 5 -31 10 -3 6 -25 10
-48 10 -23 0 -59 3 -79 6 l-38 7 0 313 c0 217 3 314 11 314 13 0 39 25 39 38
0 6 4 12 8 14 14 6 52 66 52 82 0 9 5 16 10 16 6 0 10 11 10 24 0 14 5 28 10
31 6 3 10 39 10 80 0 41 -4 77 -10 80 -5 3 -10 22 -10 41 0 19 -3 34 -8 34 -4
0 -13 15 -21 33 -14 32 -22 43 -59 82 -49 52 -118 95 -151 95 -11 0 -23 5 -26
10 -3 6 -50 10 -106 10 -59 0 -99 -4 -99 -10 0 -5 -9 -10 -21 -10 -75 0 -235
-167 -242 -251 -1 -10 -5 -19 -9 -19 -12 0 -10 -178 2 -185 6 -3 10 -17 10
-31 0 -13 3 -24 8 -24 4 0 15 -18 25 -40 9 -22 22 -40 28 -40 5 0 8 -4 5 -8
-3 -5 10 -24 29 -42 l35 -34 0 -303 0 -303 -315 0 -315 0 -3 608 c-4 588 -11
730 -37 756 -5 5 -10 18 -10 28 0 10 -4 18 -9 18 -5 0 -12 14 -16 30 -4 17
-11 30 -16 30 -5 0 -9 6 -9 13 0 8 -11 24 -25 37 -14 13 -25 28 -25 34 0 6
-14 22 -31 36 -17 14 -45 36 -62 50 -58 47 -179 101 -240 107 -32 3 -60 10
-63 14 -7 12 -117 11 -129 0z m1455 -5406 c0 -14 -4 -25 -10 -25 -11 0 -14 33
-3 43 11 11 13 8 13 -18z m20 -110 c0 -13 -4 -27 -10 -30 -6 -4 -10 8 -10 30
0 22 4 34 10 30 6 -3 10 -17 10 -30z m20 -121 c0 -59 -24 -55 -28 4 -2 33 0
42 12 42 12 0 16 -11 16 -46z m-3438 -69 c-12 -22 -27 -2 -18 22 5 12 10 13
17 6 7 -7 8 -17 1 -28z m3451 -48 c-2 -55 -2 -57 -13 -57 -5 0 -10 23 -10 51
0 34 4 49 12 47 6 -2 11 -21 11 -41z m-3433 -57 c0 -59 -15 -66 -24 -12 -9 54
-8 62 9 62 11 0 15 -12 15 -50z"/>
<path d="M5254 5327 l4 -397 -399 0 c-219 0 -399 -4 -399 -8 0 -5 8 -17 18
-28 9 -11 22 -27 27 -36 28 -43 96 -138 110 -151 8 -9 15 -18 15 -21 0 -5 22
-38 103 -150 23 -32 49 -68 57 -80 8 -11 38 -54 67 -93 29 -40 53 -75 53 -78
0 -3 20 -31 45 -63 63 -81 79 -103 100 -139 11 -18 23 -33 27 -33 4 0 8 -5 8
-11 0 -6 14 -27 30 -46 17 -18 30 -38 30 -43 0 -6 23 -10 50 -10 l50 0 0 490
0 490 285 0 c247 0 285 2 285 15 0 8 -4 15 -10 15 -5 0 -10 5 -10 11 0 6 -38
62 -85 124 -47 63 -85 117 -85 121 0 3 -12 21 -27 39 -27 32 -77 100 -98 134
-28 44 -50 77 -55 81 -15 14 -67 87 -73 103 -4 9 -10 17 -15 17 -5 0 -17 16
-28 35 -10 19 -22 35 -26 35 -5 0 -8 6 -8 13 0 8 -11 24 -25 37 l-26 24 5
-397z"/>
<path d="M4010 4919 c0 -6 13 -28 29 -48 15 -20 54 -74 85 -120 32 -46 64 -90
71 -97 8 -8 17 -23 20 -34 3 -11 9 -20 13 -20 4 0 18 -18 32 -40 14 -22 28
-40 32 -40 5 0 8 -6 8 -13 0 -8 11 -24 25 -37 14 -13 25 -28 25 -33 0 -8 56
-85 71 -97 3 -3 11 -14 17 -25 5 -11 32 -50 59 -87 26 -36 64 -89 83 -117 19
-27 38 -50 43 -51 4 0 7 -6 7 -14 0 -8 11 -24 25 -37 13 -13 25 -30 25 -37 0
-7 7 -15 15 -18 8 -4 15 -12 15 -19 0 -6 11 -24 25 -39 14 -15 25 -31 25 -35
0 -4 9 -16 20 -26 11 -10 20 -22 20 -27 0 -5 17 -30 38 -57 20 -27 55 -74 77
-105 l39 -56 148 0 c141 0 148 1 148 20 0 19 -7 20 -123 20 l-123 0 -35 38
c-19 20 -41 49 -48 65 -8 15 -18 27 -23 27 -4 0 -8 5 -8 11 0 7 -8 19 -18 28
-10 9 -31 37 -45 62 -15 25 -36 54 -47 64 -11 10 -20 24 -20 32 0 7 -4 13 -8
13 -4 0 -16 15 -27 33 -10 17 -24 36 -32 40 -7 4 -13 14 -13 21 0 7 -9 21 -20
31 -11 10 -20 23 -20 29 0 7 -9 18 -20 26 -11 8 -20 20 -20 26 0 7 -6 19 -13
26 -7 7 -24 29 -37 48 -13 19 -27 37 -30 40 -3 3 -17 23 -30 45 -13 22 -29 45
-36 50 -13 11 -93 126 -112 161 -7 13 -17 24 -23 24 -5 0 -9 6 -9 13 0 8 -11
24 -25 37 -14 13 -25 29 -25 37 0 7 -3 13 -8 13 -4 0 -22 24 -39 53 -17 29
-41 61 -52 71 -12 11 -21 23 -21 28 0 9 -43 70 -67 96 -14 15 -63 16 -63 1z"/>
<path d="M4176 4921 c-3 -4 3 -16 14 -26 11 -10 20 -24 20 -32 0 -7 6 -16 14
-19 7 -3 22 -21 32 -40 10 -19 22 -34 26 -34 5 0 8 -6 8 -13 0 -7 14 -28 30
-47 45 -51 47 -55 54 -78 4 -12 16 -27 27 -32 10 -6 19 -15 19 -21 0 -6 20
-38 45 -70 25 -33 45 -64 45 -69 0 -6 7 -13 15 -16 8 -4 15 -12 15 -19 0 -7 7
-18 15 -25 17 -14 75 -97 75 -107 0 -3 8 -13 18 -22 17 -16 38 -45 123 -171
24 -35 51 -72 59 -81 28 -32 40 -48 40 -53 0 -3 27 -42 61 -88 33 -46 70 -98
81 -115 l20 -33 109 0 c66 0 109 4 109 10 0 6 -36 10 -88 10 -86 0 -89 1 -120
33 -18 18 -32 37 -32 41 0 10 -61 89 -72 94 -5 2 -8 8 -8 12 0 15 -98 152
-112 158 -5 2 -8 10 -8 17 0 7 -11 23 -25 36 -13 13 -25 27 -25 32 0 6 -28 47
-127 182 -12 16 -39 55 -59 85 -20 30 -42 59 -48 65 -7 5 -25 30 -42 55 -16
25 -37 54 -46 64 -10 11 -20 28 -24 38 -3 10 -10 18 -15 18 -5 0 -9 5 -9 11 0
10 -13 29 -60 86 -6 7 -15 24 -22 38 -6 14 -15 25 -19 25 -4 0 -10 8 -14 19
-6 21 -72 91 -85 91 -5 0 -11 -4 -14 -9z"/>
<path d="M4320 4917 c8 -7 20 -21 26 -32 30 -55 41 -71 62 -91 12 -12 22 -24
22 -28 0 -9 40 -66 60 -86 8 -8 24 -31 34 -50 11 -19 34 -52 51 -72 17 -20 38
-50 46 -65 8 -15 22 -37 32 -48 35 -41 146 -197 152 -215 3 -10 12 -21 21 -24
8 -3 19 -16 25 -28 17 -39 33 -62 62 -93 15 -17 27 -35 27 -42 0 -6 3 -13 8
-15 7 -3 13 -11 76 -103 19 -27 47 -61 63 -75 25 -23 34 -26 96 -22 83 5 89
22 7 22 -35 0 -60 4 -60 10 0 6 -7 10 -16 8 -10 -2 -18 5 -20 16 -1 10 -6 22
-11 25 -12 9 -68 83 -76 101 -4 8 -29 44 -57 80 -64 84 -140 198 -140 210 0 5
-9 14 -19 20 -11 5 -23 20 -27 32 -4 13 -15 30 -25 39 -11 9 -19 21 -19 27 0
6 -8 17 -17 24 -10 7 -24 26 -32 41 -8 15 -30 45 -48 67 -18 21 -33 43 -33 49
0 6 -4 11 -9 11 -5 0 -13 10 -16 21 -4 12 -20 35 -36 52 -16 16 -29 36 -29 43
0 8 -4 14 -10 14 -5 0 -10 7 -10 15 0 8 -11 22 -25 31 -14 9 -25 21 -25 26 0
5 -11 24 -25 42 -14 18 -25 38 -25 44 0 14 -33 32 -57 32 -16 -1 -16 -2 -3
-13z"/>
<path d="M7730 3584 c0 -22 3 -44 8 -48 4 -4 13 -60 20 -124 13 -124 24 -204
41 -317 6 -38 10 -93 11 -122 0 -28 5 -55 10 -58 6 -3 10 -33 10 -66 0 -32 4
-59 9 -59 5 0 12 -49 16 -110 3 -60 11 -112 16 -116 5 -3 9 -32 9 -65 0 -33 4
-59 10 -59 6 0 11 -28 11 -62 2 -80 15 -201 19 -168 1 14 4 106 6 205 2 99 7
282 10 408 3 138 2 227 -4 227 -5 0 -12 21 -16 47 -7 51 -26 103 -38 103 -5 0
-8 11 -8 24 0 14 -5 28 -10 31 -6 4 -10 12 -9 18 2 13 -7 41 -22 69 -5 10 -9
25 -9 33 0 8 -5 15 -11 15 -6 0 -9 7 -6 15 4 8 2 17 -3 20 -6 4 -10 17 -10 31
0 13 -4 24 -10 24 -5 0 -10 8 -10 18 -1 9 -9 42 -20 72 l-19 55 -1 -41z"/>
<path d="M7545 2837 c-4 -20 -4 -40 -1 -46 4 -5 2 -12 -4 -16 -5 -3 -10 -39
-10 -80 0 -41 -4 -77 -10 -80 -5 -3 -10 -37 -10 -76 0 -38 -4 -69 -9 -69 -5 0
-12 -57 -16 -127 -4 -71 -11 -132 -15 -138 -8 -10 -11 -35 -31 -277 -7 -82
-16 -148 -21 -148 -4 0 -8 -29 -8 -64 0 -36 -4 -67 -9 -70 -4 -3 -11 -56 -15
-118 -10 -147 -11 -156 -19 -164 -4 -4 -7 -28 -7 -54 0 -42 2 -47 23 -46 17 1
23 -5 25 -27 2 -16 -1 -34 -6 -40 -6 -7 -13 -81 -17 -164 -4 -84 -11 -153 -16
-153 -5 0 -9 -33 -9 -74 0 -41 -4 -78 -10 -81 -6 -3 -10 -51 -10 -109 0 -87 3
-105 18 -119 22 -20 51 -21 74 -3 16 12 18 49 20 457 l3 444 28 3 27 3 0 -438
c1 -459 0 -454 45 -479 15 -8 27 -7 50 6 l30 17 3 447 2 447 28 -3 27 -3 2
-443 c2 -479 1 -472 56 -472 50 0 52 10 53 334 1 278 -1 303 -18 325 -12 15
-18 40 -18 72 0 26 -4 50 -9 53 -5 4 -12 60 -16 126 -4 66 -12 123 -16 126 -5
3 -9 31 -9 62 0 31 -5 73 -10 92 -6 19 -13 79 -17 133 -3 53 -10 97 -15 97 -4
0 -8 28 -8 63 0 35 -3 67 -7 71 -5 4 -13 65 -20 134 -7 70 -17 156 -22 192
-20 135 -42 318 -49 407 -9 102 -17 123 -27 70z"/>
<path d="M8012 2787 c2 -41 14 -58 24 -33 3 8 -2 27 -10 43 l-16 28 2 -38z"/>
<path d="M8064 2663 c3 -16 9 -184 13 -375 3 -192 10 -348 15 -348 4 0 8 -106
8 -235 0 -140 4 -235 9 -235 27 0 178 91 194 117 4 7 14 13 20 13 13 0 137
120 137 133 0 4 11 18 25 31 14 13 25 28 25 34 0 6 7 17 14 25 19 19 76 136
76 156 0 17 -22 84 -30 91 -5 4 -27 51 -50 105 -4 11 -15 36 -23 55 -8 19 -18
45 -22 58 -3 12 -10 22 -15 22 -5 0 -12 14 -15 31 -4 18 -18 52 -30 78 -13 25
-26 58 -30 73 -9 33 -48 78 -70 78 -9 0 -46 -15 -83 -33 l-68 -32 -20 25 c-27
32 -64 113 -64 139 0 12 -5 21 -11 21 -7 0 -9 -10 -5 -27z"/>
<path d="M6802 949 c-2 -404 -1 -437 16 -451 28 -24 48 -28 71 -12 20 14 21
23 21 194 0 180 0 180 -22 177 -26 -2 -35 25 -37 115 0 31 -5 59 -10 62 -4 3
-11 52 -15 108 -18 270 -23 227 -24 -193z"/>
</g>
</svg>
